<svg width="41" height="22" viewBox="0 0 41 22" fill="none" xmlns="http://www.w3.org/2000/svg" class="eyeLogo shellHome__eye" style="transform: translate(0px, 0px);"><g><circle cx="20" cy="11" r="11" fill="#fff" class="eyeLogo__bg"></circle> <path d="M20.1 0C11.5 0 4 4.3 0 10.8C4 17.3 11.5 21.6 20.1 21.7C28.7 21.7 36.2 17.4 40.2 10.9C36.2 4.4 28.7 0 20.1 0ZM20.1 18.1C13.5 18.1 10.7 15.3 10.7 10.9C10.7 6.6 14.1 3.5 20.1 3.5C26.1 3.5 29.4 6.6 29.4 10.9C29.5 15.3 26.1 18.1 20.1 18.1Z" fill="white" class="eyeLogo__bg"></path> <circle cx="20" cy="11" r="11" fill="#000" class="eyeLogo__blanc"></circle> <path d="M20.1 8.10001C18.2 8.10001 17.2 9.10001 17.2 10.9C17.2 12.6 18.3 13.4 20.1 13.4C21.9 13.4 23.1 12.5 23.1 10.9C23.1 9.10001 21.9 8.10001 20.1 8.10001Z" fill="white" class="eyeLogo__bg"></path></g></svg>