<svg width="144" height="48" viewBox="0 0 144 48" fill="none" xmlns="http://www.w3.org/2000/svg" class="shellHome__ouam" style="transform: translate(0px, 0px);"><g><path d="M0 19.8042H10.3734C10.8195 20.8112 11.9349 20.9231 14.0542 20.9231C15.3927 20.9231 15.9504 20.5874 15.9504 20.2517C15.9504 19.8042 14.9466 19.4685 11.1541 19.2447C3.45778 18.7972 0.78079 17.4545 0.78079 13.4266C0.78079 8.83914 4.79628 6.26572 12.4926 6.26572C20.0775 6.26572 23.9814 8.2797 25.6545 12.979H15.6158C15.1696 12.0839 13.8311 11.8601 12.158 11.8601C10.708 11.8601 10.2618 12.0839 10.2618 12.5315C10.2618 13.0909 12.3811 13.3147 14.9466 13.5384C22.7545 13.986 25.6545 15.5524 25.6545 19.3566C25.6545 23.8321 22.3083 26.7412 13.0503 26.7412C6.24632 26.7412 1.00387 25.1748 0 19.8042Z" fill="white"></path> <path d="M44.9512 26.1818H38.5933C31.2316 26.1818 29.3354 23.2727 29.3354 16.5594V14.993H25.6545V7.38461C26.993 7.27273 27.8854 7.16084 28.6662 6.82517C29.67 6.37762 30.2277 5.81818 30.6739 4.81119C31.1201 3.80419 31.2316 2.68531 31.3432 1.45454H38.928V6.82517H45.0628V15.1049H38.928V16.1119C38.928 17.6783 39.3741 18.2378 41.3819 18.2378H45.0628V26.1818H44.9512Z" fill="white"></path> <path d="M61.1247 21.7063C60.2324 24.6154 58.2247 26.6294 54.3207 26.6294C49.1898 26.6294 46.959 23.7203 46.959 18.4615V6.82516H56.9977V15.2168C56.9977 17.3426 57.3323 18.014 58.7824 18.014C60.2324 18.014 60.6786 17.2308 60.6786 15.1049V6.82516H70.9404V26.1818H62.2402L61.1247 21.7063Z" fill="white"></path> <path d="M88.6755 23.1608C87.5601 25.1748 85.5524 26.5175 81.8715 26.5175C76.8521 26.5175 72.7251 22.8252 72.7251 16.7832C72.7251 10.1818 76.8521 6.6014 82.0946 6.6014C85.2177 6.6014 87.2255 7.72028 88.3409 9.62237V0.671326H98.3796V26.1818H89.2332L88.6755 23.1608ZM88.4524 16.6713C88.4524 14.993 87.4486 14.0979 85.7754 14.0979C84.2139 14.0979 83.0985 14.993 83.0985 16.6713C83.0985 18.2378 84.1023 19.021 85.7754 19.021C87.4486 19.021 88.4524 18.2378 88.4524 16.6713Z" fill="white"></path> <path d="M100.276 3.5804C100.276 1.00698 102.283 -1.52588e-05 105.964 -1.52588e-05C109.645 -1.52588e-05 111.653 1.00698 111.653 3.5804C111.653 6.15383 109.868 7.16082 105.964 7.16082C101.837 7.16082 100.276 6.26572 100.276 3.5804ZM100.61 6.93705C101.503 7.72026 103.176 8.27971 105.853 8.27971C108.641 8.27971 110.203 7.83215 111.207 6.93705V26.1818H100.61V6.93705Z" fill="white"></path> <path d="M112.991 16.6713C112.991 10.6294 117.788 6.37762 126.042 6.37762C134.407 6.37762 138.981 10.6294 138.981 16.6713C138.981 22.8252 134.296 26.7413 125.93 26.7413C116.784 26.7413 112.991 22.9371 112.991 16.6713ZM128.719 16.6713C128.719 14.993 127.603 14.0979 126.042 14.0979C124.369 14.0979 123.365 14.993 123.365 16.6713C123.365 18.2378 124.369 19.021 126.042 19.021C127.603 19.021 128.719 18.2378 128.719 16.6713Z" fill="white"></path> <path d="M9.92725 37.9301C9.92725 31.8881 14.7235 27.6364 22.9776 27.6364C31.3432 27.6364 35.9164 31.8881 35.9164 37.9301C35.9164 44.0839 31.2317 48 22.8661 48C13.7197 48 9.92725 44.1958 9.92725 37.9301ZM25.6546 37.9301C25.6546 36.2518 24.5392 35.3566 22.9776 35.3566C21.3045 35.3566 20.3006 36.2518 20.3006 37.9301C20.3006 39.4965 21.3045 40.2797 22.9776 40.2797C24.5392 40.2797 25.6546 39.4965 25.6546 37.9301Z" fill="white"></path> <path d="M51.8667 42.965C50.9744 45.8741 48.9666 47.8881 45.0627 47.8881C39.9318 47.8881 37.7009 44.979 37.7009 39.7203V28.0839H47.7397V36.4755C47.7397 38.6014 48.0743 39.2727 49.5243 39.2727C50.9744 39.2727 51.4205 38.4895 51.4205 36.3636V28.0839H61.6823V47.4406H52.9821L51.8667 42.965Z" fill="white"></path> <path d="M79.1943 44.3077C77.8558 46.5454 74.9557 48.1119 70.4941 48.1119C65.3632 48.1119 63.2439 46.2098 63.2439 42.7413C63.2439 40.3916 64.2478 38.8252 66.2555 37.8182C68.1517 36.9231 69.9364 36.5874 73.5057 36.2517C78.4135 35.8042 79.1943 35.5804 79.1943 34.9091C79.1943 34.4615 78.8597 34.1259 77.2981 34.1259C75.1788 34.1259 74.2865 34.7972 74.2865 35.4685H63.8016C64.3593 30.2098 69.1556 27.7482 76.9635 27.7482C85.4406 27.7482 89.1215 30.5454 89.1215 36.5874V47.4406H80.1982L79.1943 44.3077ZM79.1943 39.2727V38.9371C78.6366 39.3846 77.6327 39.7203 76.2942 39.9441C74.9557 40.1678 74.5096 40.3916 74.2865 40.6154C74.0634 40.7273 73.8403 41.0629 73.8403 41.3986C73.8403 41.8461 74.175 42.1818 74.9557 42.1818C76.9635 42.1818 79.1943 40.951 79.1943 39.2727Z" fill="white"></path> <path d="M101.726 47.4406H91.5754V28.0839H100.164L101.168 32.2238C102.172 29.4266 104.514 27.7482 108.307 27.7482C111.988 27.7482 114.107 29.3147 115.111 32.2238C116.226 29.4266 118.568 27.7482 122.249 27.7482C127.38 27.7482 129.388 30.8811 129.388 36.2517V47.5524H119.349V40.0559C119.349 37.8182 119.238 36.3636 117.453 36.3636C115.668 36.3636 115.557 37.9301 115.557 40.2797V47.4406H105.518V39.9441C105.518 37.7063 105.407 36.2517 103.622 36.2517C101.837 36.2517 101.726 37.8182 101.726 40.1678V47.4406Z" fill="white"></path> <path d="M137.084 30.4336C136.415 30.4336 136.081 30.7692 136.081 31.4406C136.081 32 136.415 32.3357 137.084 32.3357C137.754 32.3357 138.088 32 138.088 31.4406C138.088 30.7692 137.754 30.4336 137.084 30.4336Z" fill="white"></path> <path d="M137.085 27.6364C134.184 27.6364 131.619 29.0909 130.169 31.3287C131.507 33.5664 134.073 35.021 137.085 35.021C139.985 35.021 142.55 33.5664 144 31.3287C142.662 29.2028 140.096 27.6364 137.085 27.6364ZM137.085 33.9021C134.854 33.9021 133.85 32.8951 133.85 31.4406C133.85 29.986 135.077 28.8671 137.085 28.8671C139.092 28.8671 140.319 29.8741 140.319 31.4406C140.319 32.8951 139.204 33.9021 137.085 33.9021Z" fill="white"></path></g> <defs><clipPath id="clip0"><rect width="144" height="48" fill="white"></rect></clipPath></defs></svg>